Video
ID : 0
Format : MPEG-4 Visual
Format profile : Advanced Simple@L5
Format settings, BVOP : 2
Format settings, QPel : No
Format settings, GMC : No warppoints
Format settings, Matrix : Default (H.263)
Muxing mode : Packed bitstream
Codec ID : XVID
Codec ID/Hint : XviD
Duration : 1h 45mn
Bit rate : 1 534 Kbps
Width : 672 pixels
Height : 368 pixels
Display aspect ratio : 16:9
Frame rate : 25.000 fps
Color space : YUV
Chroma subsampling : 4:2:0
Bit depth : 8 bits
Scan type : Progressive
Compression mode : Lossy
Bits/(Pixel*Frame) : 0.248
Stream size : 1.13 GiB (92%)
Writing library : XviD 63

Audio
ID : 1
Format : MPEG Audio
Format version : Version 1
Format profile : Layer 3
Mode : Joint stereo
Codec ID : 55
Codec ID/Hint : MP3
Duration : 1h 45mn
Bit rate mode : Constant
Bit rate : 128 Kbps
Channel(s) : 2 channels
Sampling rate : 48.0 KHz
Compression mode : Lossy
Stream size : 96.4 MiB (8%)
Alignment : Split accross interleaves
Interleave, duration : 40 ms (1.00 video frame)
Interleave, preload duration : 500 ms



 
http://www.imdb.com/title/tt1274300/







n Shakespeare's fantastical thriller the magician Prospero orchestrates spirits, monsters, a grief-stricken king, a wise old councillor, two treacherous brothers and a storm at sea into a fantastical conspiracy bringing banishment, sorcery and shipwreck into the lives of two hapless lovers to stir and seal their fate. Here Prospero takes female form as Prospera, giving her journey of vengeance and self-discovery a wholly new resonance. As Prospera breaks her magical staff against an entrancing volcanic landscape at the end of her heroic quest, this poignant story of love and forgiveness translates into a riveting and filmic mystical tale, for our own times.
















Source Used


Absurdity ...............


Greetz to IMAGiNE,Flawl3ss,DiLLoN,BDK,NOiR,TOXiCiNK,THC,Ez,Rx,Boobyblue,TaRiQ786,LKRG,CrEwSaDe